<?xml version="1.0" encoding="UTF-8"?>
<svg version="1.1" xmlns="http://www.w3.org/2000/svg" width="1080" height="1080">
<path d="M0 0 C0.70253906 0.00386719 1.40507812 0.00773437 2.12890625 0.01171875 C2.83144531 0.00785156 3.53398437 0.00398438 4.2578125 0 C9.50229247 0.01010497 9.50229247 0.01010497 10.62890625 1.13671875 C10.75088433 2.51722733 10.80659524 3.90369522 10.83422852 5.28930664 C10.85417374 6.1701442 10.87411896 7.05098175 10.89466858 7.95851135 C10.91138107 8.91579636 10.92809357 9.87308136 10.9453125 10.859375 C10.9660936 11.83458603 10.98687469 12.80979706 11.00828552 13.81455994 C11.07389037 16.94270505 11.13271653 20.07093697 11.19140625 23.19921875 C11.23458108 25.31446225 11.27819502 27.42969684 11.32226562 29.54492188 C11.4295828 34.74209462 11.53132845 39.93935452 11.62890625 45.13671875 C12.10041107 44.65161835 12.57191589 44.16651794 13.05770874 43.66671753 C13.68110138 43.03275055 14.30449402 42.39878357 14.94677734 41.74560547 C15.56265717 41.11613007 16.17853699 40.48665466 16.81307983 39.83810425 C19.09836287 37.69684923 21.37206463 36.46594651 24.25390625 35.26171875 C25.60355469 34.67777344 25.60355469 34.67777344 26.98046875 34.08203125 C36.8700525 30.55212083 48.00430988 31.0424983 57.75 34.75390625 C69.05624088 40.18458369 78.21972311 49.10928421 82.88671875 60.859375 C87.16417 73.98439647 86.79413343 86.98743691 80.75390625 99.44921875 C78.7450785 103.38799358 76.59421503 106.84126426 73.62890625 110.13671875 C72.96890625 110.13671875 72.30890625 110.13671875 71.62890625 110.13671875 C71.62890625 110.79671875 71.62890625 111.45671875 71.62890625 112.13671875 C62.59927451 120.54196106 51.35532712 124.75261832 39.04296875 124.3828125 C28.10599324 123.2678781 19.00079786 119.47016144 11.62890625 111.13671875 C11.603125 111.76320313 11.57734375 112.3896875 11.55078125 113.03515625 C11.4940625 113.85242188 11.43734375 114.6696875 11.37890625 115.51171875 C11.3325 116.32382812 11.28609375 117.1359375 11.23828125 117.97265625 C10.62890625 120.13671875 10.62890625 120.13671875 8.93359375 121.4140625 C6.18391075 122.27625124 3.88328827 122.36690501 1.00390625 122.32421875 C0.04226563 122.31777344 -0.919375 122.31132813 -1.91015625 122.3046875 C-4.37109375 122.13671875 -4.37109375 122.13671875 -6.37109375 121.13671875 C-6.39442313 105.50793514 -6.41207312 89.87915622 -6.42290592 74.25035954 C-6.4280688 66.99413026 -6.43511133 59.73791179 -6.4465332 52.48168945 C-6.45648031 46.15938019 -6.46294724 39.83707874 -6.46518224 33.51476187 C-6.46648931 30.16515125 -6.46957488 26.81556301 -6.47682381 23.46595955 C-6.48402995 19.7325823 -6.48508487 15.99925217 -6.48461914 12.26586914 C-6.48821442 11.14737579 -6.49180969 10.02888245 -6.49551392 8.87649536 C-6.49413925 7.86542221 -6.49276459 6.85434906 -6.49134827 5.81263733 C-6.49227006 4.92863786 -6.49319185 4.04463839 -6.49414158 3.13385105 C-6.23967134 -0.99633742 -3.50639649 0.00675606 0 0 Z M16.06640625 59.07421875 C15.22001829 60.40746705 14.40390923 61.76074855 13.62890625 63.13671875 C13.01015625 64.14734375 12.39140625 65.15796875 11.75390625 66.19921875 C8.90146164 73.64631964 9.57487727 83.34389711 12.31640625 90.69921875 C15.99624855 98.4166658 20.92621124 102.67808468 28.62890625 106.13671875 C36.76924053 108.83309782 46.75194174 108.06128342 54.4453125 104.4609375 C61.80131339 99.9999638 66.26659074 93.47245449 68.37890625 85.19921875 C69.2541505 74.4774767 68.10135509 66.446121 61.1640625 57.85546875 C56.38943839 52.50983362 50.92218695 49.57787473 43.8671875 48.6328125 C32.95725784 48.46997773 23.32335205 49.971986 16.06640625 59.07421875 Z " fill="#F9F9F9" transform="translate(309.37109375,390.86328125)"/>
<path d="M0 0 C1.12535156 0.00580078 1.12535156 0.00580078 2.2734375 0.01171875 C3.02367188 0.00785156 3.77390625 0.00398438 4.546875 0 C10.14682697 0.01010822 10.14682697 0.01010822 11.2734375 1.13671875 C11.39607138 2.70120258 11.45123272 4.27104647 11.47875977 5.84008789 C11.49870499 6.84104996 11.51865021 7.84201202 11.53919983 8.87330627 C11.55591232 9.96183395 11.57262482 11.05036163 11.58984375 12.171875 C11.61062485 13.2802623 11.63140594 14.3886496 11.65281677 15.53062439 C11.71843373 19.08675683 11.77725346 22.64296578 11.8359375 26.19921875 C11.87911118 28.60352368 11.92272508 31.00782074 11.96679688 33.41210938 C12.07412742 39.3202306 12.17587081 45.22842866 12.2734375 51.13671875 C17.65621046 45.8307484 17.65621046 45.8307484 22.71875 40.22265625 C26.4069558 35.95026169 30.26232752 31.85376494 34.1484375 27.76171875 C41.91334597 19.54754913 49.53564455 11.24235255 56.86328125 2.6328125 C58.61418316 0.77520743 59.6876797 0.17045387 62.24462891 0.02319336 C63.4229126 0.03104858 63.4229126 0.03104858 64.625 0.0390625 C65.90117187 0.04389648 65.90117187 0.04389648 67.203125 0.04882812 C68.09257812 0.05720703 68.98203125 0.06558594 69.8984375 0.07421875 C70.795625 0.07873047 71.6928125 0.08324219 72.6171875 0.08789062 C74.83600398 0.09969284 77.05468768 0.1161572 79.2734375 0.13671875 C79.2734375 4.31358685 76.95667693 5.97536965 74.2109375 8.82421875 C73.18549735 9.91340336 72.16075607 11.00324637 71.13671875 12.09375 C70.63865723 12.62049316 70.1405957 13.14723633 69.62744141 13.68994141 C68.00383122 15.42479787 66.44437115 17.2074772 64.8984375 19.01171875 C61.05724248 23.4467217 57.03574705 27.71184043 53.03393555 32.0012207 C49.67691491 35.60594196 46.38848528 39.25343363 43.171875 42.984375 C38.63857 48.12398623 33.93587042 53.11445932 29.2734375 58.13671875 C30.97000219 62.23256724 33.83093163 65.33707041 36.7109375 68.63671875 C37.24154785 69.25039307 37.7721582 69.86406738 38.31884766 70.49633789 C42.73795869 75.58205171 47.27951955 80.5484307 51.84765625 85.5 C60.2734375 94.65845788 60.2734375 94.65845788 60.2734375 97.13671875 C60.9334375 97.13671875 61.5934375 97.13671875 62.2734375 97.13671875 C63.72746092 98.77434595 65.11192428 100.47406071 66.4609375 102.19921875 C69.72818288 106.29248269 73.08184426 110.06049185 76.828125 113.7109375 C78.55240626 115.41191766 80.06764524 117.02658229 81.2734375 119.13671875 C80.7784375 120.62171875 80.7784375 120.62171875 80.2734375 122.13671875 C77.89812356 122.19111525 75.52407867 122.23057739 73.1484375 122.26171875 C72.48328125 122.27847656 71.818125 122.29523438 71.1328125 122.3125 C65.06702218 122.37196853 61.04785885 121.77736438 56.52734375 117.59765625 C55.61824303 116.57956977 54.72147036 115.55036968 53.8359375 114.51171875 C53.35640625 113.96902344 52.876875 113.42632812 52.3828125 112.8671875 C51.00162869 111.29986032 49.63586415 109.72034926 48.2734375 108.13671875 C47.1071142 106.80308504 45.9405023 105.46970361 44.7734375 104.13671875 C44.2371875 103.51796875 43.7009375 102.89921875 43.1484375 102.26171875 C40.72793675 99.51848457 38.25143108 96.82787307 35.7734375 94.13671875 C32.73455732 90.83642952 29.71187705 87.52722592 26.7734375 84.13671875 C22.03377971 78.71996699 17.13703824 73.44246501 12.2734375 68.13671875 C11.9434375 85.62671875 11.6134375 103.11671875 11.2734375 121.13671875 C3.30420673 122.27518029 3.30420673 122.27518029 -0.5390625 122.26171875 C-1.28800781 122.26429688 -2.03695312 122.266875 -2.80859375 122.26953125 C-4.7265625 122.13671875 -4.7265625 122.13671875 -6.7265625 121.13671875 C-6.74989188 105.50793514 -6.76754187 89.87915622 -6.77837467 74.25035954 C-6.78353755 66.99413026 -6.79058008 59.73791179 -6.80200195 52.48168945 C-6.81194906 46.15938019 -6.81841599 39.83707874 -6.82065099 33.51476187 C-6.82195806 30.16515125 -6.82504363 26.81556301 -6.83229256 23.46595955 C-6.8394987 19.7325823 -6.84055362 15.99925217 -6.84008789 12.26586914 C-6.84368317 11.14737579 -6.84727844 10.02888245 -6.85098267 8.87649536 C-6.849608 7.86542221 -6.84823334 6.85434906 -6.84681702 5.81263733 C-6.84773881 4.92863786 -6.8486606 4.04463839 -6.84961033 3.13385105 C-6.58765507 -1.11782347 -3.56706245 0.00643874 0 0 Z " fill="#FAFAFA" transform="translate(117.7265625,390.86328125)"/>
<path d="M0 0 C1.40562145 1.21546425 2.78231644 2.46534991 4.125 3.75 C5.06279297 4.64525391 5.06279297 4.64525391 6.01953125 5.55859375 C14.91694035 14.88245819 18.56072919 26.00380241 19.375 38.625 C19.125 41.75 19.125 41.75 17.125 46.75 C-5.645 47.08 -28.415 47.41 -51.875 47.75 C-47.11723816 58.45496413 -43.39853121 62.47481544 -32.875 66.75 C-24.70020232 68.75301322 -16.56677911 68.31146686 -8.875 64.75 C-6.60208649 63.08576503 -4.58646409 61.33211024 -2.56640625 59.37109375 C-0.875 57.75 -0.875 57.75 2.125 55.75 C6.085 58.06 10.045 60.37 14.125 62.75 C12.75920096 69.57899519 9.41876567 72.42980043 4.125 76.75 C-8.31657185 84.81651362 -22.61214196 86.41731107 -36.96875 83.57421875 C-49.73275913 79.95431831 -58.06000567 72.88226016 -64.875 61.75 C-71.05553725 49.96602385 -72.19718321 35.06357454 -68.375 22.25 C-63.56892467 10.19265311 -54.6667866 0.9110025 -42.8828125 -4.47265625 C-29.09134827 -9.8121531 -12.07628606 -8.92950424 0 0 Z M-47.875 18.75 C-51.03780525 22.9885268 -51.98360245 26.40161469 -52.875 31.75 C-35.055 31.75 -17.235 31.75 1.125 31.75 C-0.04470268 23.56208127 -2.53944013 19.27086875 -8.125 13.375 C-21.22791109 5.63237072 -37.71169283 7.12451892 -47.875 18.75 Z " fill="#F9F9F9" transform="translate(475.875,430.25)"/>
<path d="M0 0 C9.09220017 6.94420466 15.04257095 16.17209115 18.0625 27.21484375 C18.54756193 30.84202904 18.55876552 34.44212282 18.5390625 38.09375 C18.54292969 38.8259375 18.54679688 39.558125 18.55078125 40.3125 C18.54077284 45.71703966 18.54077284 45.71703966 17.4140625 46.84375 C15.23600531 46.93804342 13.0548497 46.96117538 10.87475586 46.95727539 C10.19185989 46.95742142 9.50896393 46.95756744 8.80537415 46.9577179 C6.53818636 46.95701876 4.27107976 46.9492264 2.00390625 46.94140625 C0.43591863 46.93954207 -1.13206957 46.93811817 -2.70005798 46.93711853 C-6.83470253 46.93329334 -10.96931216 46.92346306 -15.10394287 46.91241455 C-19.31994148 46.90220044 -23.53594572 46.89762091 -27.75195312 46.89257812 C-36.02996397 46.88184079 -44.3079464 46.86476436 -52.5859375 46.84375 C-51.67248418 48.77416249 -50.74695235 50.69886242 -49.81640625 52.62109375 C-49.30231201 53.69351318 -48.78821777 54.76593262 -48.25854492 55.87084961 C-44.75042093 62.10620589 -39.83248804 64.67432672 -33.1484375 66.71875 C-24.59939007 68.69704197 -16.66785082 68.60489807 -8.5859375 64.84375 C-6.34432638 63.14228614 -4.3554867 61.3645294 -2.375 59.3671875 C-0.32343824 57.62022443 0.72134356 56.99890667 3.4140625 56.84375 C5.9921875 57.91796875 5.9921875 57.91796875 8.6640625 59.53125 C9.55609375 60.05074219 10.448125 60.57023437 11.3671875 61.10546875 C12.04265625 61.67910156 12.718125 62.25273437 13.4140625 62.84375 C13.4140625 67.95792452 11.94682685 69.19461803 8.6015625 72.81640625 C-0.72557152 81.46066081 -11.53311377 84.41127172 -23.9609375 84.28125 C-24.97953857 84.27295166 -25.99813965 84.26465332 -27.04760742 84.25610352 C-39.77780701 83.96903297 -48.89028438 79.83353784 -58.33203125 71.2578125 C-67.43816122 61.56037539 -71.13054091 48.73932568 -70.8359375 35.703125 C-69.67320151 22.40433207 -64.15964582 12.00346012 -54.5859375 2.84375 C-39.07200235 -9.8043783 -16.79199043 -10.87481285 0 0 Z M-48.4609375 19.65625 C-51.29977827 23.4989919 -51.29977827 23.4989919 -52.5859375 31.84375 C-34.7659375 31.84375 -16.9459375 31.84375 1.4140625 31.84375 C0.1843666 24.46557459 -2.03146164 18.665754 -8.03125 13.90234375 C-22.20719242 5.1217227 -37.20361561 7.83935363 -48.4609375 19.65625 Z " fill="#F5F5F5" transform="translate(726.5859375,430.15625)"/>
<path d="M0 0 C9.33446442 6.99319711 15.8012474 17.45958034 18.3828125 28.78515625 C18.62027527 31.75072695 18.61901149 34.68695449 18.5703125 37.66015625 C18.5693457 38.81644531 18.5693457 38.81644531 18.56835938 39.99609375 C18.5236108 45.64435795 18.5236108 45.64435795 17.3828125 46.78515625 C15.20475531 46.87944967 13.0235997 46.90258163 10.84350586 46.89868164 C10.16060989 46.89882767 9.47771393 46.89897369 8.77412415 46.89912415 C6.50693636 46.89842501 4.23982976 46.89063265 1.97265625 46.8828125 C0.40466863 46.88094832 -1.16331957 46.87952442 -2.73130798 46.87852478 C-6.86595253 46.87469959 -11.00056216 46.86486931 -15.13519287 46.8538208 C-19.35119148 46.84360669 -23.56719572 46.83902716 -27.78320312 46.83398438 C-36.06121397 46.82324704 -44.3391964 46.80617061 -52.6171875 46.78515625 C-51.70373418 48.71556874 -50.77820235 50.64026867 -49.84765625 52.5625 C-49.33356201 53.63491943 -48.81946777 54.70733887 -48.28979492 55.81225586 C-44.78167093 62.04761214 -39.86373804 64.61573297 -33.1796875 66.66015625 C-24.63064007 68.63844822 -16.69910082 68.54630432 -8.6171875 64.78515625 C-6.37557638 63.08369239 -4.3867367 61.30593565 -2.40625 59.30859375 C-0.35468824 57.56163068 0.69009356 56.94031292 3.3828125 56.78515625 C5.9609375 57.859375 5.9609375 57.859375 8.6328125 59.47265625 C9.52484375 59.99214844 10.416875 60.51164062 11.3359375 61.046875 C12.01140625 61.62050781 12.686875 62.19414062 13.3828125 62.78515625 C13.3828125 68.10335926 11.58071708 69.66332422 8.078125 73.4609375 C-4.6621872 84.44714874 -19.59993451 84.80915722 -35.6171875 83.78515625 C-46.80476558 81.86553903 -56.68487207 74.16306779 -63.1875 65.0625 C-70.45347434 53.48855727 -72.13703453 40.54500362 -69.4296875 27.28515625 C-66.2939666 14.80034156 -58.88179624 4.83582336 -47.91796875 -2 C-32.58279336 -10.09718089 -14.51341063 -9.25855506 0 0 Z M-48.4921875 19.59765625 C-51.33102827 23.44039815 -51.33102827 23.44039815 -52.6171875 31.78515625 C-34.7971875 31.78515625 -16.9771875 31.78515625 1.3828125 31.78515625 C0.20461159 24.7159508 -1.87856681 19.4535559 -7.0546875 14.41015625 C-21.55300695 5.21610001 -36.79007639 7.31386126 -48.4921875 19.59765625 Z " fill="#F6F6F6" transform="translate(882.6171875,430.21484375)"/>
<path d="M0 0 C0.70253906 0.00386719 1.40507812 0.00773437 2.12890625 0.01171875 C2.83144531 0.00785156 3.53398437 0.00398438 4.2578125 0 C9.50229247 0.01010497 9.50229247 0.01010497 10.62890625 1.13671875 C10.73124007 2.89935781 10.76461475 4.66604413 10.77075195 6.43164062 C10.77778641 7.56371948 10.78482086 8.69579834 10.79206848 9.86218262 C10.79623276 11.09746704 10.80039703 12.33275146 10.8046875 13.60546875 C10.82789921 16.20443506 10.85201708 18.80339341 10.87695312 21.40234375 C10.9132461 25.51236881 10.94304009 29.6222483 10.95483398 33.73242188 C10.96693603 37.69038132 11.01062459 41.64773303 11.0546875 45.60546875 C11.05277908 46.82455933 11.05087067 48.0436499 11.04890442 49.29968262 C11.1465603 56.15294873 11.57743393 62.37258158 15.62890625 68.13671875 C21.0518055 72.2756444 27.42926915 73.56059517 34.14453125 72.8828125 C40.00549359 71.90891008 45.17973162 70.51516221 48.84375 65.4609375 C51.84914449 60.46620715 52.74473626 56.49144738 52.80249023 50.75732422 C52.81598007 49.68296112 52.82946991 48.60859802 52.84336853 47.50167847 C52.85380692 46.34741364 52.8642453 45.1931488 52.875 44.00390625 C52.90791829 41.56510031 52.94113025 39.12629831 52.97460938 36.6875 C53.02216655 32.83807925 53.06664013 28.98867677 53.10571289 25.13916016 C53.14526182 21.42724449 53.19682567 17.71564813 53.25 14.00390625 C53.25841415 12.84559296 53.26682831 11.68727966 53.27549744 10.49386597 C53.29213943 9.42580719 53.30878143 8.35774841 53.32592773 7.25732422 C53.3362352 6.31452606 53.34654266 5.37172791 53.35716248 4.40036011 C53.62890625 2.13671875 53.62890625 2.13671875 55.62890625 0.13671875 C58.81640625 -0.12890625 58.81640625 -0.12890625 62.62890625 -0.11328125 C63.88703125 -0.1184375 65.14515625 -0.12359375 66.44140625 -0.12890625 C69.62890625 0.13671875 69.62890625 0.13671875 71.62890625 2.13671875 C71.83261949 4.8060597 71.91210094 7.37208948 71.90356445 10.04296875 C71.90867538 10.85934814 71.91378632 11.67572754 71.91905212 12.5168457 C71.93298683 15.22354399 71.93198863 17.9299888 71.9296875 20.63671875 C71.93357198 22.51237076 71.93790614 24.3880219 71.94267273 26.26367188 C71.95014306 30.19794566 71.94983756 34.13212971 71.94458008 38.06640625 C71.93878097 43.11753319 71.95572314 48.16829399 71.97892475 53.21936035 C71.99362829 57.09344646 71.99453848 60.96744367 71.99141502 64.84155273 C71.99192983 66.70435309 71.99719725 68.56715822 72.00722694 70.42993164 C72.01951037 73.03035564 72.01284916 75.63005705 72.0012207 78.23046875 C72.00886444 79.00559814 72.01650818 79.78072754 72.02438354 80.5793457 C72.00312805 82.72070312 72.00312805 82.72070312 71.62890625 86.13671875 C68.0460839 88.52526699 66.31497592 88.40570677 62.06640625 88.38671875 C60.91011719 88.391875 59.75382812 88.39703125 58.5625 88.40234375 C55.62890625 88.13671875 55.62890625 88.13671875 53.62890625 86.13671875 C53.23126362 84.14850562 52.89115276 82.14727536 52.62890625 80.13671875 C52.20480469 80.53503906 51.78070313 80.93335938 51.34375 81.34375 C43.83148833 88.1295512 36.08069984 90.54476329 25.9296875 90.34765625 C16.07194002 89.44388993 8.73578043 86.55238068 1.94921875 79.35546875 C-5.83162175 69.91007033 -6.95990807 59.62085668 -6.796875 47.75390625 C-6.79193884 46.40439337 -6.78864796 45.05487357 -6.78691101 43.70535278 C-6.77933661 40.90327424 -6.75896392 38.10171864 -6.7277832 35.29980469 C-6.68782759 31.70287489 -6.67010594 28.10628011 -6.66047382 24.50915337 C-6.65053755 21.06985897 -6.63066601 17.63064637 -6.609375 14.19140625 C-6.60198807 12.8967746 -6.59460114 11.60214294 -6.58699036 10.26828003 C-6.5677375 8.48975143 -6.5677375 8.48975143 -6.5480957 6.67529297 C-6.5382515 5.62703339 -6.52840729 4.5787738 -6.51826477 3.49874878 C-6.24127906 -0.94674975 -3.91066682 0.007535 0 0 Z " fill="#F1F1F1" transform="translate(211.37109375,424.86328125)"/>
<path d="M0 0 C8.44136633 6.97104638 11.56459359 15.60874793 12.6875 26.3125 C13.12098053 34.47159457 13.03649961 42.64472235 12.96875 50.81225586 C12.93720705 54.66074172 12.92773247 58.50881872 12.921875 62.35742188 C12.91271895 64.79688006 12.90234768 67.23633405 12.890625 69.67578125 C12.88637512 70.82975906 12.88212524 71.98373688 12.87774658 73.17268372 C12.86813904 74.22856186 12.85853149 75.28444 12.84863281 76.37231445 C12.84180481 77.30493607 12.83497681 78.23755768 12.82794189 79.19844055 C12.6875 81.3125 12.6875 81.3125 11.6875 82.3125 C8.99095146 82.38569621 6.32058542 82.40492537 3.625 82.375 C2.86638672 82.37048828 2.10777344 82.36597656 1.32617188 82.36132812 C-0.55341871 82.3495068 -2.43296899 82.33157078 -4.3125 82.3125 C-4.33755615 81.13969482 -4.3626123 79.96688965 -4.38842773 78.75854492 C-4.48426778 74.30958375 -4.58401928 69.86071666 -4.68481445 65.41186523 C-4.72750947 63.50466142 -4.76921352 61.59743509 -4.80981445 59.69018555 C-4.92832279 54.14077682 -5.06770776 48.59254672 -5.23455811 43.04437256 C-5.2865144 41.22329816 -5.33196699 39.40202658 -5.37091064 37.58062744 C-5.4281999 34.98644495 -5.51003715 32.39409382 -5.59765625 29.80078125 C-5.60961533 29.03058151 -5.6215744 28.26038177 -5.63389587 27.46684265 C-5.84164186 22.35005155 -6.99614623 19.40283519 -10.3125 15.3125 C-15.22913968 10.98117456 -19.94983081 10.22612893 -26.3125 10.3125 C-33.52649478 11.06516398 -38.86786836 13.32461688 -43.5625 19.0625 C-47.60880548 26.57706733 -47.63856899 34.11864955 -47.7265625 42.46875 C-47.74592865 43.61162476 -47.7652948 44.75449951 -47.7852478 45.93200684 C-47.84471351 49.55876353 -47.89129685 53.18555253 -47.9375 56.8125 C-47.97571014 59.28126334 -48.01476361 61.75001378 -48.0546875 64.21875 C-48.15038779 70.24988494 -48.23553071 76.28109848 -48.3125 82.3125 C-50.95840014 82.33934679 -53.60403096 82.35926357 -56.25 82.375 C-57.00474609 82.38337891 -57.75949219 82.39175781 -58.53710938 82.40039062 C-60.46244313 82.40902441 -62.38785581 82.36474333 -64.3125 82.3125 C-66.07377717 80.55122283 -65.43864756 78.2258542 -65.44802856 75.87954712 C-65.44600433 75.10082245 -65.4439801 74.32209778 -65.44189453 73.51977539 C-65.44364685 72.70354202 -65.44539917 71.88730865 -65.44720459 71.04634094 C-65.45162436 68.33425807 -65.44868441 65.62223984 -65.4453125 62.91015625 C-65.44598557 61.03307584 -65.44695562 59.15599552 -65.44821167 57.27891541 C-65.44968886 53.33868584 -65.44753364 49.3984789 -65.44287109 45.45825195 C-65.43717771 40.39937314 -65.4404502 35.34054742 -65.44644356 30.28167057 C-65.45005193 26.40331114 -65.44890924 22.52496435 -65.44631577 18.64660454 C-65.44564706 16.78102042 -65.44647297 14.91543516 -65.44879532 13.04985237 C-65.45132591 10.44474357 -65.44747528 7.83972147 -65.44189453 5.23461914 C-65.44391876 4.4579187 -65.44594299 3.68121826 -65.44802856 2.88098145 C-65.42676338 -2.45897325 -65.42676338 -2.45897325 -64.3125 -4.6875 C-61.83326199 -4.71435095 -59.3543116 -4.73426547 -56.875 -4.75 C-56.16794922 -4.75837891 -55.46089844 -4.76675781 -54.73242188 -4.77539062 C-52.92556441 -4.78403588 -51.11862397 -4.73970011 -49.3125 -4.6875 C-47.26551586 -2.64051586 -47.61204307 1.61661241 -47.3125 4.3125 C-46.69375 3.590625 -46.075 2.86875 -45.4375 2.125 C-33.20370034 -10.14375337 -13.58656267 -9.25536243 0 0 Z " fill="#F3F3F3" transform="translate(630.3125,429.6875)"/>
<path d="M0 0 C5.31085275 3.49088549 9.26647364 6.88571044 12.33203125 12.48828125 C12.24609375 14.51953125 12.24609375 14.51953125 11.33203125 16.48828125 C9.1875 18.0078125 9.1875 18.0078125 6.51953125 19.30078125 C5.64683594 19.74035156 4.77414062 20.17992187 3.875 20.6328125 C1.08940115 21.56990336 -0.01060066 21.68324335 -2.66796875 20.48828125 C-3.8954728 18.97005256 -5.12211849 17.45106692 -6.3359375 15.921875 C-9.63737355 12.36871655 -14.10554022 12.34678682 -18.66796875 12.17578125 C-24.04354275 12.28102592 -27.81539101 13.63570351 -31.66796875 17.48828125 C-32.00702608 20.49136043 -32.19957055 22.58758445 -31.66796875 25.48828125 C-26.70933484 31.6438268 -16.45474754 33.26399498 -9.16796875 35.36328125 C-0.89016494 37.92241203 6.87508333 40.65624099 12.01953125 47.98828125 C15.59318391 54.845551 15.63076082 62.50981789 13.69921875 69.9140625 C10.75419427 76.74598865 4.65007529 81.60900119 -1.85546875 84.92578125 C-11.27875221 88.31112881 -25.08486797 88.34096863 -34.48046875 84.86328125 C-36.671875 83.74609375 -36.671875 83.74609375 -38.66796875 82.48828125 C-39.73337891 81.83472656 -39.73337891 81.83472656 -40.8203125 81.16796875 C-45.59209825 77.91569019 -50.12241492 73.74980255 -52.66796875 68.48828125 C-52.62109375 66.453125 -52.62109375 66.453125 -51.66796875 64.48828125 C-49.5234375 62.75 -49.5234375 62.75 -46.85546875 61.17578125 C-45.54642578 60.37720703 -45.54642578 60.37720703 -44.2109375 59.5625 C-41.66796875 58.48828125 -41.66796875 58.48828125 -39.4765625 58.61328125 C-37.66796875 59.48828125 -37.66796875 59.48828125 -35.54296875 62.80078125 C-32.34237188 67.57222321 -28.11274342 69.12302432 -22.66796875 70.48828125 C-16.36059044 71.40420417 -11.38468904 70.19620139 -5.66796875 67.48828125 C-3.18757968 63.76769765 -3.20459672 61.89031554 -3.66796875 57.48828125 C-6.27500352 54.30781707 -8.61207752 52.84024499 -12.48046875 51.55078125 C-13.4446875 51.21949219 -14.40890625 50.88820313 -15.40234375 50.546875 C-17.72060539 49.79538109 -20.04413244 49.06004466 -22.37109375 48.3359375 C-42.44364855 42.03536432 -42.44364855 42.03536432 -47.828125 32.3203125 C-50.54026247 26.40406845 -50.68021984 19.48940887 -49.08984375 13.203125 C-46.27557253 6.76867762 -40.65345262 1.5195472 -34.4453125 -1.64453125 C-32.55662459 -2.37176435 -30.61271006 -2.95136956 -28.66796875 -3.51171875 C-28.04792969 -3.69347656 -27.42789063 -3.87523437 -26.7890625 -4.0625 C-17.58144763 -6.01254735 -8.1385841 -4.61146713 0 0 Z " fill="#F7F7F7" transform="translate(960.66796875,427.51171875)"/>
<path d="M0 0 C0.90992305 2.72976915 1.12844593 4.35088974 1.1328125 7.16015625 C1.13474609 8.3502832 1.13474609 8.3502832 1.13671875 9.56445312 C1.13285156 10.38880859 1.12898437 11.21316406 1.125 12.0625 C1.13080078 13.30483398 1.13080078 13.30483398 1.13671875 14.57226562 C1.13542969 15.36439453 1.13414062 16.15652344 1.1328125 16.97265625 C1.13168457 17.69718994 1.13055664 18.42172363 1.12939453 19.16821289 C1 21 1 21 0 23 C0.6612085 22.99476318 1.32241699 22.98952637 2.00366211 22.98413086 C4.98159851 22.96342344 7.95951982 22.95035988 10.9375 22.9375 C12.49887695 22.92493164 12.49887695 22.92493164 14.09179688 22.91210938 C15.08115234 22.90888672 16.07050781 22.90566406 17.08984375 22.90234375 C18.46450806 22.89448853 18.46450806 22.89448853 19.86694336 22.88647461 C22 23 22 23 23 24 C23.09975032 26.51136104 23.13882183 28.98903415 23.125 31.5 C23.13080078 32.55380859 23.13080078 32.55380859 23.13671875 33.62890625 C23.12661378 38.87338622 23.12661378 38.87338622 22 40 C20.36527118 40.08700342 18.72685945 40.10701063 17.08984375 40.09765625 C16.10048828 40.09443359 15.11113281 40.09121094 14.09179688 40.08789062 C13.05087891 40.07951172 12.00996094 40.07113281 10.9375 40.0625 C9.89271484 40.05798828 8.84792969 40.05347656 7.77148438 40.04882812 C5.1809334 40.03699913 2.59049441 40.02051689 0 40 C0.1093689 41.33599243 0.1093689 41.33599243 0.22094727 42.69897461 C0.73668514 49.56287175 1.0840375 56.3694463 1.02734375 63.25390625 C1.01908066 64.27863541 1.01908066 64.27863541 1.01065063 65.32406616 C0.98319779 68.11600829 0.94774835 70.90772747 0.90405273 73.69946289 C0.87377391 75.78011882 0.8560901 77.86060012 0.83984375 79.94140625 C0.82300537 81.15513916 0.80616699 82.36887207 0.78881836 83.61938477 C1.00667817 87.10690478 1.63459864 89.78994649 3 93 C6.83163851 94.91581926 11.71438494 94.41892915 15.96679688 94.60546875 C21.8993079 94.8993079 21.8993079 94.8993079 23 96 C23.07271741 98.35313555 23.08370868 100.70833668 23.0625 103.0625 C23.05347656 104.35285156 23.04445313 105.64320313 23.03515625 106.97265625 C23.02355469 107.97167969 23.01195312 108.97070312 23 110 C16.66326457 113.16836772 5.49945637 111.69403794 -1.26953125 110.3515625 C-6.95752244 108.3070311 -10.79837636 105.12259783 -14 100 C-17.60128635 92.111468 -17.14446678 82.78338758 -17.09765625 74.27734375 C-17.0962413 73.29125626 -17.09482635 72.30516876 -17.09336853 71.28919983 C-17.0878177 68.17193432 -17.0752746 65.05474342 -17.0625 61.9375 C-17.05747864 59.81054792 -17.05291685 57.6835947 -17.04882812 55.55664062 C-17.03786442 50.37106546 -17.02063425 45.18554533 -17 40 C-18.60681641 40.01740234 -18.60681641 40.01740234 -20.24609375 40.03515625 C-21.64322743 40.04453299 -23.04036299 40.05363331 -24.4375 40.0625 C-25.14455078 40.07087891 -25.85160156 40.07925781 -26.58007812 40.08789062 C-28.38693559 40.09653588 -30.19387603 40.05220011 -32 40 C-33.75559942 38.24440058 -33.13221919 35.96417558 -33.13671875 33.62890625 C-33.13285156 32.92636719 -33.12898437 32.22382813 -33.125 31.5 C-33.12886719 30.79746094 -33.13273438 30.09492188 -33.13671875 29.37109375 C-33.12661378 24.12661378 -33.12661378 24.12661378 -32 23 C-29.46950598 22.92686433 -26.96695163 22.90752473 -24.4375 22.9375 C-23.72658203 22.94201172 -23.01566406 22.94652344 -22.28320312 22.95117188 C-20.52209987 22.96299136 -18.76103964 22.98092737 -17 23 C-17.01160156 21.87980469 -17.02320313 20.75960938 -17.03515625 19.60546875 C-17.04453622 18.13281417 -17.0536362 16.66015778 -17.0625 15.1875 C-17.07087891 14.44951172 -17.07925781 13.71152344 -17.08789062 12.95117188 C-17.10259828 9.70077932 -17.03531702 7.10595105 -16 4 C-13.41796875 2.83203125 -13.41796875 2.83203125 -10.1875 1.8125 C-8.60001953 1.29623047 -8.60001953 1.29623047 -6.98046875 0.76953125 C-4 0 -4 0 0 0 Z " fill="#EEEEEE" transform="translate(783,402)"/>
<path d="M0 0 C0 5.61 0 11.22 0 17 C-2.145 17.37125 -4.29 17.7425 -6.5 18.125 C-12.67297043 19.46070847 -17.89088276 20.99039611 -22 26 C-25.47939214 32.32636409 -25.42555824 38.05395852 -25.40625 45.171875 C-25.41708618 46.33124573 -25.42792236 47.49061646 -25.43908691 48.68511963 C-25.48488063 53.62809307 -25.49648246 58.57101233 -25.51123047 63.51416016 C-25.52687276 67.1294244 -25.55984889 70.7442435 -25.59375 74.359375 C-25.59072876 75.48124207 -25.58770752 76.60310913 -25.58459473 77.75897217 C-25.59470581 78.79725159 -25.60481689 79.83553101 -25.61523438 80.90527344 C-25.61728882 81.81903748 -25.61934326 82.73280151 -25.62145996 83.67425537 C-26 86 -26 86 -27.2857666 87.80279541 C-31.4926809 90.74086505 -38.37514813 88.77080864 -43 88 C-43 59.29 -43 30.58 -43 1 C-38.05 1 -33.1 1 -28 1 C-26 3 -26 3 -25.8046875 4.9453125 C-25.86979167 6.96354167 -25.93489583 8.98177083 -26 11 C-25.61070312 10.54109375 -25.22140625 10.0821875 -24.8203125 9.609375 C-17.7747728 1.88200888 -10.33054922 -0.66648705 0 0 Z " fill="#F4F4F4" transform="translate(553,424)"/>
<path d="" fill="#000000" transform="translate(0,0)"/>
</svg>
