<?xml version="1.0" encoding="UTF-8"?>
<svg version="1.1" xmlns="http://www.w3.org/2000/svg" width="1080" height="1080">
<path d="M0 0 C356.4 0 712.8 0 1080 0 C1080 356.4 1080 712.8 1080 1080 C723.6 1080 367.2 1080 0 1080 C0 723.6 0 367.2 0 0 Z " fill="#000000" transform="translate(0,0)"/>
<path d="M0 0 C4.95 0 9.9 0 15 0 C15.33 15.18 15.66 30.36 16 46 C18.64 43.36 21.28 40.72 24 38 C26.77712784 36.40104761 29.07537284 35.12314579 32 34 C32.91136719 33.64421875 33.82273437 33.2884375 34.76171875 32.921875 C46.001831 29.72203605 57.35663242 31.778663 67.390625 37.3203125 C77.27703106 43.47409586 83.7930995 51.08243814 88 62 C91.19723223 75.88736452 90.06203225 90.04845572 82.6484375 102.21875 C76.51696707 111.12479644 67.72526516 118.67320793 57 121 C53.77389339 121.24209555 50.54682172 121.23104427 47.3125 121.25 C46.45205078 121.270625 45.59160156 121.29125 44.70507812 121.3125 C36.58005042 121.36148283 29.51971079 119.82115411 23.125 114.5625 C22.40570313 113.98628906 21.68640625 113.41007812 20.9453125 112.81640625 C19 111 19 111 16 107 C15.67 110.96 15.34 114.92 15 119 C10.05 119 5.1 119 0 119 C0 79.73 0 40.46 0 0 Z " fill="#F9F9F9" transform="translate(304,392)"/>
<path d="M0 0 C1.24604159 1.04265877 2.47592449 2.10498362 3.6875 3.1875 C4.57695313 3.90486328 4.57695313 3.90486328 5.484375 4.63671875 C12.17062915 10.50938002 16.54889408 19.63307632 18.6875 28.1875 C18.6875 33.7975 18.6875 39.4075 18.6875 45.1875 C-4.7425 45.1875 -28.1725 45.1875 -52.3125 45.1875 C-47.51170724 56.70940262 -44.97892554 62.09873826 -34 66.625 C-26.16598478 69.15315172 -17.00041845 69.52939108 -9.3125 66.1875 C-5.79590452 63.9721718 -2.57243185 61.52463355 0.28125 58.49609375 C1.6875 57.1875 1.6875 57.1875 3.875 57.1875 C7.85743064 58.60347534 11.19309776 60.83766623 14.6875 63.1875 C12.18329679 68.82195723 8.68339246 72.53641645 3.5 75.8125 C2.61957031 76.38226563 1.73914063 76.95203125 0.83203125 77.5390625 C-6.95902982 81.6233206 -13.93205091 82.7158945 -22.6875 82.625 C-24.21322632 82.61364014 -24.21322632 82.61364014 -25.76977539 82.60205078 C-36.97285479 82.35543362 -44.8643018 79.57291847 -53.3125 72.1875 C-53.90675781 71.72085938 -54.50101563 71.25421875 -55.11328125 70.7734375 C-61.9938146 64.82353061 -67.13778093 54.16065533 -68.3125 45.1875 C-69.30255073 31.42417184 -67.29124141 19.76419742 -58.578125 8.6953125 C-43.90949274 -7.54134597 -18.74459277 -13.39412472 0 0 Z " fill="#F9F9F9" transform="translate(725.3125,430.8125)"/>
<path d="M0 0 C1.20544635 0.99957794 2.39526071 2.01856064 3.5625 3.0625 C4.8309375 4.17625 4.8309375 4.17625 6.125 5.3125 C17.80721977 18.49244025 18.5625 26.56901847 18.5625 45.0625 C-4.8675 45.0625 -28.2975 45.0625 -52.4375 45.0625 C-47.63670724 56.58440262 -45.10392554 61.97373826 -34.125 66.5 C-25.8188189 69.18052659 -17.65460371 68.84795888 -9.4375 66.0625 C-5.96064384 64.08546414 -3.57161604 62.20970053 -0.875 59.25 C1.5625 57.0625 1.5625 57.0625 3.875 56.9375 C7.72011259 58.54708201 11.11038843 60.74110487 14.5625 63.0625 C10.11020565 72.32486235 2.92242422 77.14456745 -6.5546875 80.7109375 C-11.96143883 82.4378449 -17.17280099 82.55854841 -22.8125 82.5 C-24.33822632 82.48864014 -24.33822632 82.48864014 -25.89477539 82.47705078 C-39.47808113 82.1780369 -48.32219454 77.59434899 -57.625 67.875 C-67.75804349 56.12625469 -68.47589542 42.82790755 -67.75439453 27.99755859 C-67.0475014 21.45035582 -64.24047366 16.39566424 -60.4375 11.0625 C-59.89738281 10.28003906 -59.35726562 9.49757813 -58.80078125 8.69140625 C-45.22762373 -8.6940667 -17.9617914 -12.96868148 0 0 Z " fill="#F9F9F9" transform="translate(881.4375,430.9375)"/>
<path d="M0 0 C10.54838594 6.49951053 17.50624978 16.6734366 20.5078125 28.6796875 C20.5078125 34.6196875 20.5078125 40.5596875 20.5078125 46.6796875 C-2.9221875 46.6796875 -26.3521875 46.6796875 -50.4921875 46.6796875 C-44.55406471 60.04725346 -44.55406471 60.04725346 -32.859375 67.76953125 C-24.9277943 70.81913241 -15.42906245 70.83823977 -7.4921875 67.6796875 C-3.03146267 65.40101399 0.89480468 63.08913819 3.5078125 58.6796875 C8.66245984 59.16293569 12.32331569 61.86579511 16.5078125 64.6796875 C14.12446096 71.89246188 7.98807969 76.61014387 1.3828125 80.0546875 C-5.81266783 83.47653815 -12.44523948 84.01897498 -20.3046875 83.9921875 C-21.70557617 84.01635742 -21.70557617 84.01635742 -23.13476562 84.04101562 C-35.59934376 84.04966558 -44.62308618 80.05556088 -53.72265625 71.609375 C-64.22918982 60.61003966 -65.90614828 48.89474215 -65.703125 34.36328125 C-65.29106491 21.52074185 -58.98166299 12.43089871 -49.921875 3.69140625 C-35.75451437 -8.03880392 -15.79612519 -8.36848012 0 0 Z " fill="#F9F9F9" transform="translate(472.4921875,429.3203125)"/>
<path d="M0 0 C5.28 0 10.56 0 16 0 C16 17.49 16 34.98 16 53 C17.65 51.35 19.3 49.7 21 48 C21.72960937 47.28199219 22.45921875 46.56398438 23.2109375 45.82421875 C27.27118631 41.81527273 31.15535819 37.741903 34.87109375 33.4140625 C37.76595255 30.13145197 40.75761419 26.94361176 43.75 23.75 C48.24327896 18.9504156 52.73398268 14.14905021 57.1875 9.3125 C58.04730469 8.38050781 58.90710938 7.44851563 59.79296875 6.48828125 C62.03407472 4.16760707 62.03407472 4.16760707 63.1953125 1.68359375 C65.8982343 -0.83796317 68.42892634 -0.40614276 72.01757812 -0.3515625 C72.89865234 -0.31804687 73.77972656 -0.28453125 74.6875 -0.25 C76.02651367 -0.22292969 76.02651367 -0.22292969 77.39257812 -0.1953125 C79.59613504 -0.14817759 81.79752601 -0.08240657 84 0 C82.11479401 4.07867085 79.38237095 7.02286778 76.3125 10.25 C75.21537208 11.41984774 74.11901323 12.59041724 73.0234375 13.76171875 C72.49717773 14.32294434 71.97091797 14.88416992 71.42871094 15.46240234 C69.72516979 17.29577592 68.07271737 19.16804085 66.4375 21.0625 C61.27584824 27.02402032 55.88456401 32.78217581 50.54296875 38.58203125 C47.35328848 42.04683219 44.17182986 45.51884308 41 49 C40.27039063 49.80050781 39.54078125 50.60101563 38.7890625 51.42578125 C38.15742188 52.13089844 37.52578125 52.83601563 36.875 53.5625 C36.06675781 54.46162109 36.06675781 54.46162109 35.2421875 55.37890625 C33.78707272 57.09543297 33.78707272 57.09543297 33 60 C33.66 60 34.32 60 35 60 C36.3046875 61.2578125 36.3046875 61.2578125 37.875 63.125 C38.49632812 63.85460937 39.11765625 64.58421875 39.7578125 65.3359375 C40.49773437 66.21507812 41.23765625 67.09421875 42 68 C43.91225299 70.25377714 45.83011656 72.50272074 47.75 74.75 C48.26248291 75.35038086 48.77496582 75.95076172 49.30297852 76.56933594 C53.60844507 81.59137477 58.05269256 86.47169597 62.54296875 91.328125 C65.16354017 94.17784019 67.7176984 97.07593253 70.25 100.00390625 C73.04192543 103.1884462 75.91870899 106.29628899 78.7890625 109.41015625 C81.41076815 112.48116481 83.68985711 115.68879519 86 119 C69.53558719 120.52135231 69.53558719 120.52135231 63.7578125 117.0546875 C61.25069524 114.50070824 59.11141513 111.88712167 57 109 C55.82425408 107.65629038 54.63759874 106.32200493 53.4375 105 C52.61572266 104.0409375 52.61572266 104.0409375 51.77734375 103.0625 C49.7202376 100.67535264 47.61315228 98.33765244 45.5 96 C42.84886006 93.06321535 40.21709829 90.11397458 37.625 87.125 C33.75462943 82.67723149 29.74891123 78.35549908 25.74609375 74.02734375 C22.76622034 70.74227705 19.88641262 67.36748139 17 64 C16.67 82.15 16.34 100.3 16 119 C10.72 119 5.44 119 0 119 C0 79.73 0 40.46 0 0 Z " fill="#F9F9F9" transform="translate(112,392)"/>
<path d="M0 0 C4.95 0 9.9 0 15 0 C15.0093457 1.70986084 15.01869141 3.41972168 15.02832031 5.18139648 C15.06399039 10.86130066 15.11787799 16.54084139 15.18390274 22.22047329 C15.22323843 25.66059073 15.2554941 29.10045754 15.27099609 32.54077148 C15.28918241 36.50537253 15.3391947 40.46927942 15.390625 44.43359375 C15.39185364 45.65582138 15.39308228 46.87804901 15.39434814 48.13731384 C15.52381011 55.75669266 16.12268809 62.954499 21.63043213 68.70115662 C26.85298906 73.09102718 33.73010134 72.74765747 40.203125 72.421875 C46.31652716 71.74260809 49.90356612 70.09643388 54.3125 65.6875 C59.06088837 58.12525185 59.45188857 52.14800384 59.4765625 43.3203125 C59.49214203 42.11180634 59.50772156 40.90330017 59.52377319 39.65817261 C59.57116338 35.81378779 59.59902958 31.9695841 59.625 28.125 C59.66145248 24.25911863 59.7019855 20.39334085 59.74765015 16.52755737 C59.77494977 14.12488881 59.79626903 11.72214379 59.81118774 9.31936646 C59.82144989 8.24089447 59.83171204 7.16242249 59.84228516 6.05126953 C59.84878082 5.09753448 59.85527649 4.14379944 59.86196899 3.16116333 C60 1 60 1 61 0 C63.33160055 -0.09909302 65.66629942 -0.12970504 68 -0.125 C69.27875 -0.12757813 70.5575 -0.13015625 71.875 -0.1328125 C75 0 75 0 76 1 C76.09509559 3.61688441 76.12556 6.207289 76.11352539 8.82446289 C76.11367142 9.64390884 76.11381744 10.4633548 76.1139679 11.30763245 C76.11326852 14.02933353 76.10547501 16.75096705 76.09765625 19.47265625 C76.09579216 21.35452741 76.09436821 23.23639906 76.09336853 25.11827087 C76.08954267 30.08148529 76.07971181 35.04467064 76.06866455 40.00787354 C76.0584519 45.06839606 76.05387122 50.12892327 76.04882812 55.18945312 C76.03808959 65.12631694 76.02049225 75.06315151 76 85 C70.72 85 65.44 85 60 85 C59.505 80.545 59.505 80.545 59 76 C58.030625 77.0725 57.06125 78.145 56.0625 79.25 C49.47144079 85.68443999 43.54821609 87.35053214 34.5 87.375 C24.40519477 87.18407912 16.49388604 86.39902673 9 79 C0.74310613 69.06183815 -0.44474785 59.40136689 -0.29296875 46.77734375 C-0.2873616 45.42257664 -0.2830968 44.06780337 -0.28010559 42.71302795 C-0.26874466 39.17675474 -0.23935521 35.64086127 -0.20599365 32.10473633 C-0.1751019 28.48458999 -0.16155978 24.86438126 -0.14648438 21.24414062 C-0.11447516 14.16259177 -0.06178092 7.08136091 0 0 Z " fill="#F5F5F5" transform="translate(206,426)"/>
<path d="M0 0 C7.1740897 5.052937 12.81877701 11.00772946 14.88671875 19.7109375 C15.98514836 26.66579549 16.01561309 33.49197142 15.984375 40.5234375 C15.98296005 41.73290039 15.9815451 42.94236328 15.98008728 44.18847656 C15.97451584 48.02932265 15.96196859 51.8701092 15.94921875 55.7109375 C15.94420006 58.3242179 15.9396378 60.93749923 15.93554688 63.55078125 C15.92455576 69.93752274 15.90731084 76.32422004 15.88671875 82.7109375 C10.93671875 82.7109375 5.98671875 82.7109375 0.88671875 82.7109375 C0.88260986 81.00107666 0.87850098 79.29121582 0.87426758 77.52954102 C0.85479039 71.84960376 0.81235654 66.17014065 0.75462818 60.49046421 C0.72048754 57.05027795 0.69526866 53.61052962 0.69116211 50.17016602 C0.6860241 46.20549533 0.64078065 42.24174701 0.59375 38.27734375 C0.59768265 37.05511612 0.6016153 35.83288849 0.60566711 34.57362366 C0.48175383 27.25276587 -0.37650099 21.51474446 -5.11328125 15.7109375 C-11.07899319 10.91351322 -17.7182529 10.06017501 -25.11328125 10.7109375 C-31.08093018 11.93928663 -35.3254384 13.76569823 -39.11328125 18.7109375 C-43.91405016 26.25416647 -44.85104957 32.67141483 -44.8203125 41.5 C-44.83543381 42.68443695 -44.85055511 43.8688739 -44.86613464 45.08920288 C-44.90880815 48.83831118 -44.91783062 52.58661114 -44.92578125 56.3359375 C-44.94894115 58.89194827 -44.97430956 61.44794004 -45.00195312 64.00390625 C-45.06460541 70.23965417 -45.09709942 76.47490287 -45.11328125 82.7109375 C-50.06328125 82.7109375 -55.01328125 82.7109375 -60.11328125 82.7109375 C-60.13640422 71.77597279 -60.1541961 60.84101384 -60.16509342 49.9060297 C-60.17032235 44.82902732 -60.17742017 39.75204161 -60.1887207 34.67504883 C-60.19954924 29.77973198 -60.20555801 24.88443121 -60.20815849 19.98910332 C-60.2100128 18.11710799 -60.21363353 16.24511359 -60.21901131 14.37312508 C-60.22622129 11.76053051 -60.22727221 9.14800323 -60.22680664 6.53540039 C-60.23040192 5.75353363 -60.23399719 4.97166687 -60.23770142 4.16610718 C-60.22733341 -1.17501034 -60.22733341 -1.17501034 -59.11328125 -2.2890625 C-56.7601457 -2.36177991 -54.40494457 -2.37277118 -52.05078125 -2.3515625 C-50.76042969 -2.34253906 -49.47007812 -2.33351563 -48.140625 -2.32421875 C-47.14160156 -2.31261719 -46.14257812 -2.30101562 -45.11328125 -2.2890625 C-45.11328125 1.3409375 -45.11328125 4.9709375 -45.11328125 8.7109375 C-44.45328125 8.7109375 -43.79328125 8.7109375 -43.11328125 8.7109375 C-42.73042969 7.81568359 -42.73042969 7.81568359 -42.33984375 6.90234375 C-39.42099883 1.68746476 -33.09419959 -1.96920199 -27.5078125 -3.8203125 C-18.04197136 -5.67333197 -8.30359195 -5.0650376 0 0 Z " fill="#F7F7F7" transform="translate(626.11328125,428.2890625)"/>
<path d="M0 0 C5.68939695 5.17551594 9.50427904 11.16999466 10.51171875 18.8671875 C10.83211427 28.70332998 9.00451247 36.22492184 2.69140625 43.83984375 C-3.36893569 50.24907531 -9.73127305 53.6232659 -18.64282227 53.89648438 C-27.56739311 53.92210822 -34.04945306 52.81050084 -40.953125 46.66796875 C-48.35235426 38.87930638 -50.59138626 31.31779227 -50.47021484 20.77587891 C-50.07028257 11.86113251 -47.02672687 6.1527211 -40.55859375 0.02734375 C-28.18610699 -10.14969345 -12.42246622 -9.86268531 0 0 Z " fill="#020202" transform="translate(368.93359375,445.53515625)"/>
<path d="M0 0 C9.12892269 6.07806511 9.12892269 6.07806511 10.68359375 11.21484375 C10.79316406 11.80652344 10.90273438 12.39820313 11.015625 13.0078125 C9.41651632 14.01588101 7.81114238 15.01401635 6.203125 16.0078125 C4.86314453 16.843125 4.86314453 16.843125 3.49609375 17.6953125 C1.015625 19.0078125 1.015625 19.0078125 -1.984375 19.0078125 C-2.5721875 17.8940625 -2.5721875 17.8940625 -3.171875 16.7578125 C-5.75054482 12.84534795 -8.52781632 11.33908482 -12.984375 10.0078125 C-20.39771383 9.03444308 -25.96171742 9.45736011 -31.984375 14.0078125 C-33.53461964 17.10830178 -33.27429515 19.58675468 -32.984375 23.0078125 C-30.12424383 28.35501426 -25.48432696 30.13889679 -19.984375 32.0078125 C-17.53058225 32.65040795 -15.07179119 33.27409721 -12.609375 33.8828125 C-2.09981045 36.51579033 6.31191074 40.38745821 12.10546875 49.7734375 C14.48587042 55.61717035 14.04641851 63.06828727 11.98828125 68.9375 C8.04573263 76.12364126 2.5039476 80.40484014 -5.15625 83.140625 C-15.84459922 85.56186329 -29.44735427 85.92039925 -38.984375 80.0078125 C-39.70753906 79.56050781 -40.43070313 79.11320312 -41.17578125 78.65234375 C-45.88712302 75.41600769 -49.03362788 71.89498742 -51.984375 67.0078125 C-51.984375 66.0178125 -51.984375 65.0278125 -51.984375 64.0078125 C-49.90234375 62.40234375 -49.90234375 62.40234375 -47.171875 60.8203125 C-46.27855469 60.29050781 -45.38523437 59.76070313 -44.46484375 59.21484375 C-41.984375 58.0078125 -41.984375 58.0078125 -38.984375 58.0078125 C-38.04893429 59.44438217 -37.11797542 60.88423797 -36.21875 62.34375 C-33.22281976 66.38256735 -28.91039225 69.1096477 -23.984375 70.0078125 C-17.29758476 70.5991613 -12.02643292 69.97584095 -5.984375 67.0078125 C-3.7605719 65.13147864 -3.15488544 63.94755752 -2.640625 61.11328125 C-2.47927132 58.93904035 -2.5271361 57.14012854 -2.984375 55.0078125 C-7.63250659 49.63341035 -15.22944738 48.23279245 -21.80395508 46.27172852 C-31.8376575 43.24484676 -41.01640341 40.24349312 -46.984375 31.0078125 C-49.81215021 25.20599785 -49.71895569 19.32826722 -48.984375 13.0078125 C-46.23327305 5.41771873 -39.65353494 0.04305536 -32.546875 -3.3671875 C-20.99624484 -7.48615273 -10.42557758 -5.87926407 0 0 Z " fill="#F9F9F9" transform="translate(960.984375,428.9921875)"/>
<path d="M0 0 C0 7.59 0 15.18 0 23 C7.59 23 15.18 23 23 23 C23 27.62 23 32.24 23 37 C15.41 37 7.82 37 0 37 C0.07399315 44.17223276 0.15682222 51.34321716 0.26245117 58.51489258 C0.29569417 60.95427983 0.32372801 63.39374388 0.34643555 65.83325195 C0.37999217 69.34099032 0.43231049 72.84802525 0.48828125 76.35546875 C0.49467117 77.44522507 0.5010611 78.53498138 0.50764465 79.65776062 C0.61943111 85.42200023 0.70843378 89.70843378 5 94 C6.34015221 94.15582303 7.68758903 94.25044142 9.03515625 94.31640625 C9.84404297 94.35830078 10.65292969 94.40019531 11.48632812 94.44335938 C12.33646484 94.48267578 13.18660156 94.52199219 14.0625 94.5625 C15.34350586 94.62727539 15.34350586 94.62727539 16.65039062 94.69335938 C18.76672037 94.79976702 20.88333813 94.90041731 23 95 C23.02685938 97.14576637 23.04633088 99.29162645 23.0625 101.4375 C23.07410156 102.63246094 23.08570313 103.82742188 23.09765625 105.05859375 C23 108 23 108 22 109 C18.96677664 109.15509107 15.97207176 109.2318425 12.9375 109.25 C12.10283203 109.270625 11.26816406 109.29125 10.40820312 109.3125 C3.35719533 109.35646575 -2.31813088 108.32428657 -7.8125 103.5625 C-8.534375 102.716875 -9.25625 101.87125 -10 101 C-10.556875 100.360625 -11.11375 99.72125 -11.6875 99.0625 C-15.73042462 92.70933275 -15.26173521 86.08086591 -15.1953125 78.8203125 C-15.1924826 77.6524118 -15.18965271 76.48451111 -15.18673706 75.28121948 C-15.17556973 71.56237409 -15.15047104 67.84377223 -15.125 64.125 C-15.11496576 61.59896182 -15.10584069 59.07291985 -15.09765625 56.546875 C-15.07564161 50.36448994 -15.04113508 44.18228622 -15 38 C-20.28 38 -25.56 38 -31 38 C-31 33.05 -31 28.1 -31 23 C-25.72 23 -20.44 23 -15 23 C-15 16.73 -15 10.46 -15 4 C-4.5 0 -4.5 0 0 0 Z " fill="#F7F7F7" transform="translate(782,403)"/>
<path d="M0 0 C0 4.95 0 9.9 0 15 C-1.65 15.226875 -3.3 15.45375 -5 15.6875 C-11.80178237 16.93055418 -16.38643086 19.45706786 -21.3125 24.25 C-25.89422655 31.71651734 -26.45927682 39.22175646 -26.51171875 47.81640625 C-26.52966995 48.91347397 -26.54762115 50.01054169 -26.56611633 51.14085388 C-26.61991881 54.61469785 -26.65401883 58.08840678 -26.6875 61.5625 C-26.72069956 63.93035721 -26.75519163 66.29819667 -26.79101562 68.66601562 C-26.87562815 74.44391252 -26.94258252 80.22177146 -27 86 C-31.62 86 -36.24 86 -41 86 C-41 57.95 -41 29.9 -41 1 C-36.38 1 -31.76 1 -27 1 C-26.67 5.29 -26.34 9.58 -26 14 C-25.195625 12.6696875 -25.195625 12.6696875 -24.375 11.3125 C-18.33207805 2.3223284 -10.36821985 -0.47853322 0 0 Z " fill="#FBFBFB" transform="translate(552,425)"/>
<path d="M0 0 C7.50198428 4.21615475 11.84982771 9.29948314 14.5625 17.4375 C14.5625 19.0875 14.5625 20.7375 14.5625 22.4375 C-3.9175 22.4375 -22.3975 22.4375 -41.4375 22.4375 C-40.37033983 13.9002186 -38.83860361 9.12342427 -32.25 3.60546875 C-22.28679007 -3.31155706 -11.24783275 -5.25272389 0 0 Z " fill="#050505" transform="translate(714.4375,440.5625)"/>
<path d="M0 0 C5.16132781 3.56059791 8.4330399 7.27370439 11 13 C11.495 16.96 11.495 16.96 12 21 C-6.48 21 -24.96 21 -44 21 C-42.81061342 12.67429395 -41.18007293 8.59149456 -35 3 C-34.236875 2.29875 -33.47375 1.5975 -32.6875 0.875 C-22.90325231 -5.95121932 -10.1315784 -6.40410924 0 0 Z " fill="#050505" transform="translate(873,442)"/>
<path d="M0 0 C5.53276978 3.90257868 10.10483414 8.32951489 12 15 C12 16.98 12 18.96 12 21 C-6.48 21 -24.96 21 -44 21 C-42.65940253 11.61581772 -39.40823277 6.43783635 -32.0859375 0.4765625 C-22.66269208 -6.19382471 -9.68471812 -6.21802924 0 0 Z " fill="#050505" transform="translate(466,442)"/>
</svg>
